{"title":"Whiskey Tango Foxtrot 2016 Movies HDRip XviD ESubs AAC New ☻rDX☻","uid":14918575,"size":739401033,"categoryP":"video","categoryS":"movies","magnet":"?xt=urn:btih:885fdb394d25925221f4ca4234c65a95e1ed5972&amp;dn=Whiskey+Tango+Foxtrot+2016+Movies+HDRip+XviD+ESubs+AAC+New+%E2%98%BBrDX%E2%98%BB&amp;tr=udp%3A%2F%2Ftracker.leechers-paradise.org%3A6969&amp;tr=udp%3A%2F%2Fzer0day.ch%3A1337&amp;tr=udp%3A%2F%2Fopen.demonii.com%3A1337&amp;tr=udp%3A%2F%2Ftracker.coppersurfer.tk%3A6969&amp;tr=udp%3A%2F%2Fexodus.desync.com%3A6969","seeders":0,"leechers":1,"uploader":"basicssom","files":3,"time":1465915118,"description":"----------------------------------------------------------------\r\nWhiskey Tango Foxtrot 2016 English Movies HDRip XviD ESubs AAC New Source with Sample ☻rDX☻\r\n\r\nSCREEN SHOTS &amp; POSTER:\r\n  \nhttp://mobileshosting.com/2016/6/fast/index.htm  \nhttp://mobileshosting.com/2016/6/fast/1.html  \nhttp://mobileshosting.com/2016/6/fast/2.html  \nhttp://mobileshosting.com/2016/6/fast/3.html  \nhttp://mobileshosting.com/2016/6/fast/4.html  \nhttp://mobileshosting.com/2016/6/fast/5.html  \nhttp://mobileshosting.com/2016/6/fast/6.html  \nhttp://mobileshosting.com/2016/6/fast/7.html  \nhttp://mobileshosting.com/2016/6/fast/8.html  \nhttp://mobileshosting.com/2016/6/fast/9.html  \nhttp://mobileshosting.com/2016/6/fast/10.html\r\n\r\nFormat                                   : Matroska\r\nFormat version                           : Version 4 / Version 2\r\nFile size                                : 694 MiB\r\nDuration                                 : 1h 52mn\r\nOverall bit rate                         : 865 Kbps\r\nMovie name                               : Whiskey Tango Foxtrot 2016 English Movies HDRip XviD ESubs AAC New Source ☻rDX☻\r\n\r\nVideo\r\nID                                       : 1\r\nFormat                                   : MPEG-4 Visual\r\nFormat profile                           : Advanced   \r\nFormat settings, BVOP                    : Yes\r\nFormat settings, QPel                    : No\r\nFormat settings, GMC                     : No warppoints\r\nFormat settings, Matrix                  : Default (H.263)\r\nCodec ID                                 : V_MS/VFW/FOURCC / XVID\r\nCodec ID/Hint                            : XviD\r\nDuration                                 : 1h 52mn\r\nBit rate                                 : 752 Kbps\r\nWidth                                    : 640 pixels\r\nHeight                                   : 352 pixels\r\nDisplay aspect ratio                     : 16:9\r\nFrame rate mode                          : Constant\r\nFrame rate                               : 23.976 fps\r\nColor space                              : YUV\r\nChroma subsampling                       : 4:2:0\r\nBit depth                                : 8 bits\r\nScan type                                : Progressive\r\nCompression mode                         : Lossy\r\nBits/(Pixel*Frame)                       : 0.139\r\nStream size                              : 603 MiB (87%)\r\nTitle                                    : ☻rDX☻\r\nWriting library                          : XviD 65\r\nDefault                                  : Yes\r\nForced                                   : No\r\n\r\nAudio\r\nID                                       : 2\r\nFormat                                   : MPEG Audio\r\nFormat version                           : Version 1\r\nFormat profile                           : Layer 3\r\nMode                                     : Joint stereo\r\nMode extension                           : MS Stereo\r\nCodec ID                                 : A_MPEG/L3\r\nCodec ID/Hint                            : MP3\r\nDuration                                 : 1h 51mn\r\nBit rate mode                            : Constant\r\nBit rate                                 : 96.0 Kbps\r\nChannel(s)                               : 2 channels\r\nSampling rate                            : 48.0 KHz\r\nCompression mode                         : Lossy\r\nStream size                              : 76.8 MiB (11%)\r\nTitle                                    : ☻rDX☻\r\nWriting library                          : LAME3.99r\r\nEncoding settings                        : -m j -V 4 -q 3 -lowpass 15.1 -b 96\r\nDefault                                  : Yes\r\nForced                                   : No\r\n\r\nIMDB \nhttp://www.imdb.com/title/tt3553442/","torrent":{"xt":"urn:btih:885fdb394d25925221f4ca4234c65a95e1ed5972","amp;dn":"Whiskey+Tango+Foxtrot+2016+Movies+HDRip+XviD+ESubs+AAC+New+%E2%98%BBrDX%E2%98%BB","amp;tr":["udp%3A%2F%2Ftracker.leechers-paradise.org%3A6969","udp%3A%2F%2Fzer0day.ch%3A1337","udp%3A%2F%2Fopen.demonii.com%3A1337","udp%3A%2F%2Ftracker.coppersurfer.tk%3A6969","udp%3A%2F%2Fexodus.desync.com%3A6969"],"infoHash":"885fdb394d25925221f4ca4234c65a95e1ed5972","infoHashBuffer":{"type":"Buffer","data":[136,95,219,57,77,37,146,82,33,244,202,66,52,198,90,149,225,237,89,114]},"announce":[],"urlList":[]}}